<svg height="512pt" viewBox="0 -66 512.00034 512" width="512pt" xmlns="http://www.w3.org/2000/svg" xmlns:xlink="http://www.w3.org/1999/xlink"><linearGradient id="a" gradientTransform="matrix(.400993 0 0 -.400993 -.000015 445.594736)" gradientUnits="userSpaceOnUse" x1="149.9234" x2="932.9174" y1="27.5887" y2="810.6047"><stop offset="0" stop-color="#41dfd0"/><stop offset="1" stop-color="#ee83ef"/></linearGradient><path d="m461.285156 226.507812-76.492187-5.464843-50.554688-84.214844-25.273437-42.167969v-11.679687c.007812-12.675781-10.261719-22.957031-22.9375-22.964844-2.839844-.003906-5.65625.523437-8.300782 1.546875l-72.6875 28.039062 5.488282-18.433593c4.339844-15.496094-2.695313-31.921875-16.902344-39.476563l-57.035156-30.640625c-4.148438-2.226562-9.316406-.804687-11.742188 3.230469l-83.65625 133.96875-1.765625-1.023438c-4.230469-2.429687-9.625-.96875-12.050781 3.257813-.054688.089844-.101562.179687-.152344.273437l-26.191406 49.308594c-2.257812 4.257813-.683594 9.535156 3.53125 11.863282l318.535156 176.554687c1.308594.722656 2.777344 1.101563 4.273438 1.101563h131.664062c29.238282-.027344 52.9375-23.726563 52.964844-52.964844v-45.65625c-.097656-28.609375-22.183594-52.328125-50.714844-54.457032zm-94.941406-1.890624-10.078125 3.363281-78.992187-102.699219 20.304687-15.246094zm-230.691406-204.03125 49.621094 26.632812c6.878906 3.632812 10.316406 11.550781 8.28125 19.058594l-7.292969 24.578125-50.671875-30.386719-17.546875-10.53125zm-52.265625 84.25 4.519531-7.0625 29.042969 21.601562c14.78125 11.097656 22.328125 29.375 19.683593 47.667969l-1.101562 25.511719-78.894531-45.46875zm375.648437 257.09375h-129.394531l-308.964844-171.253907 17.839844-33.542969 292.519531 168.3125c1.34375.773438 2.863282 1.179688 4.414063 1.175782h158.894531c0 19.5-15.808594 35.308594-35.308594 35.308594zm35.308594-52.964844h-156.539062l-60.546876-34.859375 20.355469-20.753907c3.363281-3.53125 3.226563-9.117187-.300781-12.480468-3.460938-3.296875-8.914062-3.242188-12.304688.121094l-23.550781 24.011718-33.546875-19.332031 33.640625-26.914063c3.808594-3.046874 4.425781-8.605468 1.378907-12.414062-3.046876-3.804688-8.605469-4.421875-12.410157-1.375l-39.046875 31.238281-28.742187-16.523437 43.609375-36.34375c3.75-3.121094 4.257812-8.6875 1.136718-12.4375-3.117187-3.75-8.6875-4.257813-12.4375-1.140625l-48.621093 40.527343-13.648438-7.855468 1.429688-33.886719c3.269531-24.414063-6.960938-48.679687-26.71875-63.382813l-30.078125-22.359374 11.363281-17.84375 78.140625 46.882812c1.050781.605469 2.210938.980469 3.417969 1.105469.210937 0 .394531.070312.609375.089843.210937.015626.34375.058594.511718.058594 1.089844.003906 2.175782-.195312 3.195313-.589844l89.421875-34.488281c1.636719-.625 3.46875-.410156 4.917969.574219 1.453125.996094 2.316406 2.648438 2.304687 4.410156v9.710938l-31.78125 23.835937c-3.898437 2.929688-4.683594 8.460938-1.753906 12.359375.019531.027344.039062.054688.058594.078125l88.277344 114.757813c2.28125 2.988281 6.214843 4.191406 9.78125 2.992187l24.8125-8.269531 79.324218 5.667969c19.308594 1.429687 34.265625 17.46875 34.339844 36.828125zm-432.550781-44.136719c0 4.875-3.953125 8.828125-8.828125 8.828125h-44.136719c-4.875 0-8.828125-3.953125-8.828125-8.828125s3.953125-8.828125 8.828125-8.828125h44.136719c4.875 0 8.828125 3.953125 8.828125 8.828125zm-52.964844 44.136719h114.757813c4.875 0 8.828124 3.953125 8.828124 8.828125s-3.953124 8.828125-8.828124 8.828125h-114.757813c-4.875 0-8.828125-3.953125-8.828125-8.828125s3.953125-8.828125 8.828125-8.828125zm220.6875 61.792968c0 4.875-3.949219 8.828126-8.824219 8.828126h-211.863281c-4.875 0-8.828125-3.953126-8.828125-8.828126s3.953125-8.828124 8.828125-8.828124h211.863281c4.875 0 8.824219 3.953124 8.824219 8.828124zm0 0" fill="url(#a)"/></svg>