<?xml version="1.0" ?><svg data-name="Layer 1" id="Layer_1" viewBox="0 0 32 32" xmlns="http://www.w3.org/2000/svg"><defs><style>.cls-1{fill:#c939e2;}.cls-2{fill:#f4d7f9;}</style></defs><title/><path class="cls-1" d="M15.35,29.35a13.35,13.35,0,0,1,0-26.7c.24,0,.46,0,.7,0A.93.93,0,1,1,16,4.53h-.6A11.48,11.48,0,1,0,26.83,16c0-.2,0-.4,0-.6a.94.94,0,0,1,.87-1,1,1,0,0,1,1,.88c0,.24,0,.47,0,.71A13.36,13.36,0,0,1,15.35,29.35Z"/><path class="cls-2" d="M29.07,12.36H10.77a.94.94,0,0,1,0-1.87h18.3a.94.94,0,0,1,0,1.87Z"/></svg>